M48
;Layer_Color=9474304
;FILE_FORMAT=2:4
METRIC,LZ
;TYPE=PLATED
T1F00S00C0.3000
T3F00S00C0.8000
T4F00S00C0.9900
;TYPE=NON_PLATED
T5F00S00C0.5000
T6F00S00C1.3200
%
T01
X076351Y062374
X08636Y07112
X09525Y09906
X17501Y181936
X17651
X1779814Y182213
X1799264Y2211
Y2361
X1799253Y25111
X1780154Y275209
X17651Y275264
X1750655Y274759
X17351Y275264
X1743962Y298198
X173863Y30353
X175641
X1761742Y298198
X174498Y22352
X173744
X173101Y23241
X172347Y232238
X1720598Y246128
X172593Y25146
X1705936Y2561
X1706096Y24094
X1706244Y22578
X1706534Y210425
X17145Y18288
X167005Y18034
X164592Y20066
X166116Y220815
X166878Y23749
X1719936Y2751
X170942Y28829
X1724912Y299468
X171958Y3048
X1354764Y2511
Y2361
Y2211
X133477Y18288
X13206Y181936
X13056
X1270786Y182121
X1261744Y21078
X1261596Y22594
X1261436Y2411
X127381Y23876
X1279142Y233428
X127508Y22225
X1280412Y216918
X128135Y254
X127381
X1261596Y25626
X12756Y275264
X12906
X13056
X13206
X13356
X1306578Y299468
X131191Y3048
X129413Y30226
X1287894Y297988
X1273558Y298198
X127889Y30353
X126619Y28956
X122301Y23876
X122809Y22733
X122682Y19431
X122555Y18034
X120142Y20066
X897564Y2211
Y2361
X89724Y250762
X878114Y274987
X8634Y275264
X850206Y274011
X835046Y274083
X823696Y27356
X82542Y25527
X81407
X804513Y25626
X804236Y2411
X804396Y22594
X804834Y210425
X821942Y215648
X81661Y22098
X81753Y23495
X82507
X81407Y19304
X7747Y19431
X77089Y1778
X762Y22098
X77089Y24003
X80518Y28575
X805897Y296465
X810008Y302786
X81753Y30226
X82507
X837948Y300738
X84328Y30607
X84836Y18288
X8634Y181936
X878454Y181991
X433615Y182213
X4189Y181936
X4039
X373761Y193715
X364488Y210898
X36068Y22606
X36524Y241185
X359785Y256136
X377479Y258791
X372147Y264123
X374135Y275033
X38354Y27305
X39108
X39878
X40632
X418451Y274845
X433954Y275209
X453064Y2511
Y2361
Y2211
X4039Y296436
X406793Y303399
X398784Y30268
X391298Y303584
X38354Y30268
X3889Y296436
X368534Y29718
X37211Y3175
X377442Y322832
X31877Y24257
X32893Y22606
Y21209
X3302Y19304
X32766Y17653
X21209Y2667
X17145
X18161Y31115
X17145Y35687
X2032Y38227
X19431Y41275
X20828Y47244
X12319Y32385
X07112Y32258
X09906Y20955
X13208
T03
X1905Y40005
X2032
X2159
X21717Y45847
X20447
X19177
T04
X0267Y15165
X0717
Y21665
X0267
T05
X0312Y01397
X0972
T06
X2471Y0381
X3371
X4503
X5403
X6916
X7816
X8948
X9848
X11361
X12261
X1352
X1442
X15933
X16833
X17965
X18865
X18121Y4699
X17221
X13404
X12504
X8763
X7863
X4403Y46465
X3503
M30
